<?xml version="1.0" encoding="UTF-8"?>
<svg id="Layer_1" xmlns="http://www.w3.org/2000/svg" viewBox="0 0 132.66 132.66">
  <defs>
    <style>
      .cls-1 {
        fill: #8e23e2;
      }

      .cls-2 {
        fill: #bc15fd;
      }

      .cls-3 {
        fill: #af75fe;
      }

      .cls-4 {
        fill: #df2eed;
      }

      .cls-5, .cls-6 {
        fill: none;
      }

      .cls-6 {
        stroke: #231f20;
        stroke-linecap: round;
      }

      .cls-6, .cls-7 {
        stroke-miterlimit: 10;
      }

      .cls-8 {
        fill: #cc27fd;
      }

      .cls-9 {
        fill: #b020e5;
      }

      .cls-7 {
        fill: aqua;
        font-family: Gotham-Medium, Gotham;
        font-size: 60px;
        font-weight: 500;
        stroke: #2e3192;
        stroke-width: 2px;
      }
    </style>
  </defs>
  <g>
    <g>
      <polygon class="cls-1" points="114.95 58.36 115.82 66.54 114.55 78.83 109.47 90.63 103.63 98.9 93.6 107.91 86.7 111.8 76.85 114.92 65.96 115.96 56.49 115.3 46.85 112.18 75.29 97.06 79.86 94.6 88.34 88.81 92.67 83.22 95.44 76.32 96.75 69.92 96.5 61.93 94.05 54.89 89.71 47.26 88.05 45.81 114.52 55.56 114.95 58.36"/>
      <polygon class="cls-9" points="34.5 28.35 41.21 23.59 52.55 18.67 65.17 16.69 75.55 17.53 88.57 21.89 95.72 26.24 103.36 33.15 109.77 42.1 113.81 51.44 115.37 63.27 89.35 46.62 83.03 41.84 74.04 37.94 67.46 37.02 60.19 37.43 54.36 39.58 47.44 43.81 42.53 48.82 38.36 56.07 36.51 62.22 32.27 30.09 34.5 28.35"/>
      <polygon class="cls-4" points="32.27 30.09 36.53 61.28 35.9 66.32 36.53 75.56 40.71 83.85 47.22 91.12 54.22 95.36 61.47 97.48 68.79 97.87 75.29 96.53 47.15 112.17 38.15 107.27 28.32 98.39 22.04 89 18.29 79.35 16.58 67.45 17.4 57.22 20.02 48.08 23.67 40.72 32.27 30.09"/>
      <g>
        <circle class="cls-6" cx="66.33" cy="67.45" r="30.42"/>
        <line class="cls-6" x1="32.27" y1="30.09" x2="36.21" y2="63.15"/>
        <line class="cls-5" x1="80.24" y1="40.39" x2="115.82" y2="63.73"/>
        <line class="cls-6" x1="47.15" y1="112.17" x2="82.67" y2="93.09"/>
        <circle class="cls-6" cx="66.19" cy="66.32" r="49.63"/>
      </g>
      <line class="cls-6" x1="87.55" y1="45.49" x2="115.82" y2="63.73"/>
    </g>
    <g>
      <path class="cls-2" d="M66.33,16c27.75,0,50.33,22.58,50.33,50.33s-22.58,50.33-50.33,50.33-50.33-22.58-50.33-50.33,22.58-50.33,50.33-50.33M66.33,0C29.7,0,0,29.7,0,66.33s29.7,66.33,66.33,66.33,66.33-29.7,66.33-66.33S102.96,0,66.33,0h0Z"/>
      <path class="cls-3" d="M66.33,21c24.99,0,45.33,20.33,45.33,45.33s-20.33,45.33-45.33,45.33-45.33-20.33-45.33-45.33,20.33-45.33,45.33-45.33M66.33,10c-31.11,0-56.33,25.22-56.33,56.33s25.22,56.33,56.33,56.33,56.33-25.22,56.33-56.33S97.43,10,66.33,10h0Z"/>
      <path class="cls-8" d="M66.33,23c23.89,0,43.33,19.44,43.33,43.33s-19.44,43.33-43.33,43.33-43.33-19.44-43.33-43.33,19.44-43.33,43.33-43.33M66.33,15c-28.35,0-51.33,22.98-51.33,51.33s22.98,51.33,51.33,51.33,51.33-22.98,51.33-51.33S94.67,15,66.33,15h0Z"/>
    </g>
  </g>
  <path d="M66.33,10.75c30.65,0,55.58,24.93,55.58,55.58s-24.93,55.58-55.58,55.58S10.75,96.97,10.75,66.33,35.68,10.75,66.33,10.75M66.33,10c-31.11,0-56.33,25.22-56.33,56.33s25.22,56.33,56.33,56.33,56.33-25.22,56.33-56.33S97.43,10,66.33,10h0Z"/>
  <path d="M66.33,15.75c27.89,0,50.58,22.69,50.58,50.58s-22.69,50.58-50.58,50.58S15.75,94.21,15.75,66.33,38.44,15.75,66.33,15.75M66.33,15c-28.35,0-51.33,22.98-51.33,51.33s22.98,51.33,51.33,51.33,51.33-22.98,51.33-51.33S94.67,15,66.33,15h0Z"/>
  <path d="M66.33,23.25c23.75,0,43.08,19.32,43.08,43.08s-19.32,43.08-43.08,43.08-43.08-19.32-43.08-43.08,19.32-43.08,43.08-43.08M66.33,22.5c-24.2,0-43.83,19.62-43.83,43.83s19.62,43.83,43.83,43.83,43.83-19.62,43.83-43.83-19.62-43.83-43.83-43.83h0Z"/>
  <text class="cls-7" transform="translate(2.59 86.73) scale(.94 1)"><tspan x="0" y="0">MGL</tspan></text>
</svg>